<svg width="164" height="156" viewBox="0 0 164 156" fill="none" xmlns="http://www.w3.org/2000/svg">
<g id="control wheel">
<g id="Rectangle 45" filter="url(#filter0_ddd_4_212)">
<rect x="34.3776" y="6.63303" width="88.8417" height="70.5954" fill="#BCBDBC"/>
<rect x="34.3776" y="6.63303" width="88.8417" height="70.5954" fill="#BCBDBC"/>
<rect x="34.3776" y="6.63303" width="88.8417" height="70.5954" fill="#BCBDBC"/>
</g>
<rect id="Rectangle 48" x="40.6211" y="14.8585" width="76.3549" height="62.3699" fill="#444444"/>
<rect id="Rectangle 46" x="34.3776" y="6.63303" width="4" height="70.5954" fill="#444444"/>
<path id="Rectangle 47" d="M51.4922 6.63303H123.22V77.2284H119.22V10.9999H51.4922V6.63303Z" fill="#444444"/>
<rect id="Rectangle 49" x="42.7788" y="17.8549" width="72.0394" height="59.37" fill="url(#paint0_linear_4_212)"/>
<g id="Union" filter="url(#filter1_ii_4_212)">
<path d="M52.7367 17.3867C52.2922 17.3867 51.9319 17.7478 51.9319 18.1931C51.9319 18.6385 52.2922 18.9996 52.7367 18.9996H106.86C107.305 18.9996 107.665 18.6385 107.665 18.1931C107.665 17.7478 107.305 17.3867 106.86 17.3867H52.7367Z" fill="url(#paint1_linear_4_212)"/>
<path d="M52.7367 77.8867C52.2922 77.8867 51.9319 77.5256 51.9319 77.0802C51.9319 76.6348 52.2922 76.2738 52.7367 76.2738H106.86C107.305 76.2738 107.665 76.6348 107.665 77.0802C107.665 77.5256 107.305 77.8867 106.86 77.8867H52.7367Z" fill="url(#paint2_linear_4_212)"/>
<path d="M51.9319 21.2833C51.9319 20.8379 52.2922 20.4768 52.7367 20.4768H106.86C107.305 20.4768 107.665 20.8379 107.665 21.2833C107.665 21.7287 107.305 22.0897 106.86 22.0897H52.7367C52.2922 22.0897 51.9319 21.7287 51.9319 21.2833Z" fill="url(#paint3_linear_4_212)"/>
<path d="M52.7367 74.7965C52.2922 74.7965 51.9319 74.4355 51.9319 73.9901C51.9319 73.5447 52.2922 73.1836 52.7367 73.1836H106.86C107.305 73.1836 107.665 73.5447 107.665 73.9901C107.665 74.4355 107.305 74.7965 106.86 74.7965H52.7367Z" fill="url(#paint4_linear_4_212)"/>
<path d="M51.9319 24.569C51.9319 24.0156 52.3796 23.567 52.9319 23.567H106.665C107.217 23.567 107.665 24.0156 107.665 24.569V25.2157C107.665 25.7691 107.217 26.2177 106.665 26.2177H52.9319C52.3796 26.2177 51.9319 25.7691 51.9319 25.2157V24.569Z" fill="url(#paint5_linear_4_212)"/>
<path d="M52.9319 71.7064C52.3796 71.7064 51.9319 71.2578 51.9319 70.7043V70.0577C51.9319 69.5043 52.3796 69.0556 52.9319 69.0556H106.665C107.217 69.0556 107.665 69.5043 107.665 70.0577V70.7043C107.665 71.2578 107.217 71.7064 106.665 71.7064H52.9319Z" fill="url(#paint6_linear_4_212)"/>
<path d="M51.9319 28.7643C51.9319 28.2109 52.3796 27.7622 52.9319 27.7622H106.665C107.217 27.7622 107.665 28.2109 107.665 28.7643V30.0464C107.665 30.5999 107.217 31.0485 106.665 31.0485H52.9319C52.3796 31.0485 51.9319 30.5999 51.9319 30.0464V28.7643Z" fill="url(#paint7_linear_4_212)"/>
<path d="M52.9319 67.5112C52.3796 67.5112 51.9319 67.0625 51.9319 66.5091V65.227C51.9319 64.6735 52.3796 64.2249 52.9319 64.2249H106.665C107.217 64.2249 107.665 64.6735 107.665 65.227V66.5091C107.665 67.0625 107.217 67.5112 106.665 67.5112H52.9319Z" fill="url(#paint8_linear_4_212)"/>
<path d="M51.9319 33.7397C51.9319 33.1862 52.3796 32.7376 52.9319 32.7376H106.665C107.217 32.7376 107.665 33.1863 107.665 33.7397V35.3296C107.665 35.883 107.217 36.3317 106.665 36.3317H52.9319C52.3796 36.3317 51.9319 35.883 51.9319 35.3296V33.7397Z" fill="url(#paint9_linear_4_212)"/>
<path d="M52.9319 62.5358C52.3796 62.5358 51.9319 62.0871 51.9319 61.5337V59.9438C51.9319 59.3903 52.3796 58.9417 52.9319 58.9417H106.665C107.217 58.9417 107.665 59.3903 107.665 59.9438V61.5337C107.665 62.0871 107.217 62.5358 106.665 62.5358H52.9319Z" fill="url(#paint10_linear_4_212)"/>
<path d="M51.9319 39.0229C51.9319 38.4695 52.3796 38.0208 52.9319 38.0208H106.665C107.217 38.0208 107.665 38.4695 107.665 39.0229V40.6128C107.665 41.1662 107.217 41.6149 106.665 41.6149H52.9319C52.3796 41.6149 51.9319 41.1662 51.9319 40.6128V39.0229Z" fill="url(#paint11_linear_4_212)"/>
<path d="M52.9319 57.2526C52.3796 57.2526 51.9319 56.8039 51.9319 56.2505V54.6606C51.9319 54.1072 52.3796 53.6585 52.9319 53.6585H106.665C107.217 53.6585 107.665 54.1072 107.665 54.6606V56.2505C107.665 56.8039 107.217 57.2526 106.665 57.2526H52.9319Z" fill="url(#paint12_linear_4_212)"/>
<path d="M51.9319 44.3061C51.9319 43.7526 52.3796 43.304 52.9319 43.304H106.665C107.217 43.304 107.665 43.7526 107.665 44.3061V45.896C107.665 46.4494 107.217 46.8981 106.665 46.8981H52.9319C52.3796 46.8981 51.9319 46.4494 51.9319 45.896V44.3061Z" fill="url(#paint13_linear_4_212)"/>
<path d="M52.9319 51.9694C52.3796 51.9694 51.9319 51.5207 51.9319 50.9673V49.3774C51.9319 48.824 52.3796 48.3753 52.9319 48.3753H106.665C107.217 48.3753 107.665 48.824 107.665 49.3774V50.9673C107.665 51.5207 107.217 51.9694 106.665 51.9694H52.9319Z" fill="url(#paint14_linear_4_212)"/>
</g>
</g>
<defs>
<filter id="filter0_ddd_4_212" x="0.377625" y="0.633026" width="162.842" height="154.595" filterUnits="userSpaceOnUse" color-interpolation-filters="sRGB">
<feFlood flood-opacity="0" result="BackgroundImageFix"/>
<feColorMatrix in="SourceAlpha" type="matrix" values="0 0 0 0 0 0 0 0 0 0 0 0 0 0 0 0 0 0 127 0" result="hardAlpha"/>
<feOffset dx="6" dy="6"/>
<feGaussianBlur stdDeviation="6"/>
<feComposite in2="hardAlpha" operator="out"/>
<feColorMatrix type="matrix" values="0 0 0 0 0 0 0 0 0 0 0 0 0 0 0 0 0 0 0.25 0"/>
<feBlend mode="normal" in2="BackgroundImageFix" result="effect1_dropShadow_4_212"/>
<feColorMatrix in="SourceAlpha" type="matrix" values="0 0 0 0 0 0 0 0 0 0 0 0 0 0 0 0 0 0 127 0" result="hardAlpha"/>
<feOffset dx="20" dy="20"/>
<feGaussianBlur stdDeviation="10"/>
<feComposite in2="hardAlpha" operator="out"/>
<feColorMatrix type="matrix" values="0 0 0 0 0 0 0 0 0 0 0 0 0 0 0 0 0 0 0.25 0"/>
<feBlend mode="normal" in2="effect1_dropShadow_4_212" result="effect2_dropShadow_4_212"/>
<feColorMatrix in="SourceAlpha" type="matrix" values="0 0 0 0 0 0 0 0 0 0 0 0 0 0 0 0 0 0 127 0" result="hardAlpha"/>
<feMorphology radius="10" operator="erode" in="SourceAlpha" result="effect3_dropShadow_4_212"/>
<feOffset dy="44"/>
<feGaussianBlur stdDeviation="22"/>
<feComposite in2="hardAlpha" operator="out"/>
<feColorMatrix type="matrix" values="0 0 0 0 0.972549 0 0 0 0 0.341176 0 0 0 0 0.215686 0 0 0 0.6 0"/>
<feBlend mode="normal" in2="effect2_dropShadow_4_212" result="effect3_dropShadow_4_212"/>
<feBlend mode="normal" in="SourceGraphic" in2="effect3_dropShadow_4_212" result="shape"/>
</filter>
<filter id="filter1_ii_4_212" x="51.9319" y="17.3867" width="55.7332" height="61" filterUnits="userSpaceOnUse" color-interpolation-filters="sRGB">
<feFlood flood-opacity="0" result="BackgroundImageFix"/>
<feBlend mode="normal" in="SourceGraphic" in2="BackgroundImageFix" result="shape"/>
<feColorMatrix in="SourceAlpha" type="matrix" values="0 0 0 0 0 0 0 0 0 0 0 0 0 0 0 0 0 0 127 0" result="hardAlpha"/>
<feOffset dy="0.5"/>
<feGaussianBlur stdDeviation="0.5"/>
<feComposite in2="hardAlpha" operator="arithmetic" k2="-1" k3="1"/>
<feColorMatrix type="matrix" values="0 0 0 0 1 0 0 0 0 1 0 0 0 0 1 0 0 0 0.35 0"/>
<feBlend mode="normal" in2="shape" result="effect1_innerShadow_4_212"/>
<feColorMatrix in="SourceAlpha" type="matrix" values="0 0 0 0 0 0 0 0 0 0 0 0 0 0 0 0 0 0 127 0" result="hardAlpha"/>
<feOffset dy="-0.5"/>
<feComposite in2="hardAlpha" operator="arithmetic" k2="-1" k3="1"/>
<feColorMatrix type="matrix" values="0 0 0 0 0 0 0 0 0 0 0 0 0 0 0 0 0 0 0.15 0"/>
<feBlend mode="normal" in2="effect1_innerShadow_4_212" result="effect2_innerShadow_4_212"/>
</filter>
<linearGradient id="paint0_linear_4_212" x1="78.7985" y1="17.8549" x2="78.7985" y2="77.2249" gradientUnits="userSpaceOnUse">
<stop stop-color="#D4D4D4"/>
<stop offset="0.0001" stop-color="#E5E5E5"/>
<stop offset="0.531781" stop-color="#A7A7A7"/>
<stop offset="1" stop-color="#C47768"/>
</linearGradient>
<linearGradient id="paint1_linear_4_212" x1="79.7985" y1="17.3867" x2="79.7985" y2="77.8867" gradientUnits="userSpaceOnUse">
<stop stop-color="#E0E0E0"/>
<stop offset="0.442708" stop-color="#ACACAC"/>
<stop offset="0.9375" stop-color="#C6897E"/>
</linearGradient>
<linearGradient id="paint2_linear_4_212" x1="79.7985" y1="17.3867" x2="79.7985" y2="77.8867" gradientUnits="userSpaceOnUse">
<stop stop-color="#E0E0E0"/>
<stop offset="0.442708" stop-color="#ACACAC"/>
<stop offset="0.9375" stop-color="#C6897E"/>
</linearGradient>
<linearGradient id="paint3_linear_4_212" x1="79.7985" y1="17.3867" x2="79.7985" y2="77.8867" gradientUnits="userSpaceOnUse">
<stop stop-color="#E0E0E0"/>
<stop offset="0.442708" stop-color="#ACACAC"/>
<stop offset="0.9375" stop-color="#C6897E"/>
</linearGradient>
<linearGradient id="paint4_linear_4_212" x1="79.7985" y1="17.3867" x2="79.7985" y2="77.8867" gradientUnits="userSpaceOnUse">
<stop stop-color="#E0E0E0"/>
<stop offset="0.442708" stop-color="#ACACAC"/>
<stop offset="0.9375" stop-color="#C6897E"/>
</linearGradient>
<linearGradient id="paint5_linear_4_212" x1="79.7985" y1="17.3867" x2="79.7985" y2="77.8867" gradientUnits="userSpaceOnUse">
<stop stop-color="#E0E0E0"/>
<stop offset="0.442708" stop-color="#ACACAC"/>
<stop offset="0.9375" stop-color="#C6897E"/>
</linearGradient>
<linearGradient id="paint6_linear_4_212" x1="79.7985" y1="17.3867" x2="79.7985" y2="77.8867" gradientUnits="userSpaceOnUse">
<stop stop-color="#E0E0E0"/>
<stop offset="0.442708" stop-color="#ACACAC"/>
<stop offset="0.9375" stop-color="#C6897E"/>
</linearGradient>
<linearGradient id="paint7_linear_4_212" x1="79.7985" y1="17.3867" x2="79.7985" y2="77.8867" gradientUnits="userSpaceOnUse">
<stop stop-color="#E0E0E0"/>
<stop offset="0.442708" stop-color="#ACACAC"/>
<stop offset="0.9375" stop-color="#C6897E"/>
</linearGradient>
<linearGradient id="paint8_linear_4_212" x1="79.7985" y1="17.3867" x2="79.7985" y2="77.8867" gradientUnits="userSpaceOnUse">
<stop stop-color="#E0E0E0"/>
<stop offset="0.442708" stop-color="#ACACAC"/>
<stop offset="0.9375" stop-color="#C6897E"/>
</linearGradient>
<linearGradient id="paint9_linear_4_212" x1="79.7985" y1="17.3867" x2="79.7985" y2="77.8867" gradientUnits="userSpaceOnUse">
<stop stop-color="#E0E0E0"/>
<stop offset="0.442708" stop-color="#ACACAC"/>
<stop offset="0.9375" stop-color="#C6897E"/>
</linearGradient>
<linearGradient id="paint10_linear_4_212" x1="79.7985" y1="17.3867" x2="79.7985" y2="77.8867" gradientUnits="userSpaceOnUse">
<stop stop-color="#E0E0E0"/>
<stop offset="0.442708" stop-color="#ACACAC"/>
<stop offset="0.9375" stop-color="#C6897E"/>
</linearGradient>
<linearGradient id="paint11_linear_4_212" x1="79.7985" y1="17.3867" x2="79.7985" y2="77.8867" gradientUnits="userSpaceOnUse">
<stop stop-color="#E0E0E0"/>
<stop offset="0.442708" stop-color="#ACACAC"/>
<stop offset="0.9375" stop-color="#C6897E"/>
</linearGradient>
<linearGradient id="paint12_linear_4_212" x1="79.7985" y1="17.3867" x2="79.7985" y2="77.8867" gradientUnits="userSpaceOnUse">
<stop stop-color="#E0E0E0"/>
<stop offset="0.442708" stop-color="#ACACAC"/>
<stop offset="0.9375" stop-color="#C6897E"/>
</linearGradient>
<linearGradient id="paint13_linear_4_212" x1="79.7985" y1="17.3867" x2="79.7985" y2="77.8867" gradientUnits="userSpaceOnUse">
<stop stop-color="#E0E0E0"/>
<stop offset="0.442708" stop-color="#ACACAC"/>
<stop offset="0.9375" stop-color="#C6897E"/>
</linearGradient>
<linearGradient id="paint14_linear_4_212" x1="79.7985" y1="17.3867" x2="79.7985" y2="77.8867" gradientUnits="userSpaceOnUse">
<stop stop-color="#E0E0E0"/>
<stop offset="0.442708" stop-color="#ACACAC"/>
<stop offset="0.9375" stop-color="#C6897E"/>
</linearGradient>
</defs>
</svg>
