<svg width="195" height="198" viewBox="0 0 195 198" fill="none" xmlns="http://www.w3.org/2000/svg">
<g id="Dialer + shadow">
<g id="Dialer shadow" style="mix-blend-mode:darken" filter="url(#filter0_d_4_206)">
<rect x="0.216858" y="77.7367" width="109.806" height="162.482" rx="54.903" transform="rotate(-45 0.216858 77.7367)" fill="black" fill-opacity="0.15" shape-rendering="crispEdges"/>
</g>
<g id="Dialer (Top Right)">
<g id="Dialer (Half base)" filter="url(#filter1_d_4_206)">
<circle cx="77.2193" cy="77.3867" r="54.9558" fill="url(#paint0_linear_4_206)"/>
</g>
<g id="Dialer (Half pipe)">
<path d="M77.2193 22.4309C62.6442 22.4309 48.6659 28.2209 38.3597 38.5271C28.0535 48.8333 22.2636 62.8115 22.2635 77.3867C22.2635 91.9619 28.0535 105.94 38.3597 116.246C48.6659 126.552 62.6441 132.342 77.2193 132.342L77.2193 77.3867V22.4309Z" fill="#313131"/>
<path d="M77.2193 22.4309C62.6442 22.4309 48.6659 28.2209 38.3597 38.5271C28.0535 48.8333 22.2636 62.8115 22.2635 77.3867C22.2635 91.9619 28.0535 105.94 38.3597 116.246C48.6659 126.552 62.6441 132.342 77.2193 132.342L77.2193 77.3867V22.4309Z" fill="url(#paint1_linear_4_206)" fill-opacity="0.05"/>
</g>
</g>
</g>
<defs>
<filter id="filter0_d_4_206" x="18.9584" y="22.8337" width="175.054" height="175.054" filterUnits="userSpaceOnUse" color-interpolation-filters="sRGB">
<feFlood flood-opacity="0" result="BackgroundImageFix"/>
<feColorMatrix in="SourceAlpha" type="matrix" values="0 0 0 0 0 0 0 0 0 0 0 0 0 0 0 0 0 0 127 0" result="hardAlpha"/>
<feOffset dx="10" dy="14"/>
<feGaussianBlur stdDeviation="7"/>
<feComposite in2="hardAlpha" operator="out"/>
<feColorMatrix type="matrix" values="0 0 0 0 0 0 0 0 0 0 0 0 0 0 0 0 0 0 0.15 0"/>
<feBlend mode="normal" in2="BackgroundImageFix" result="effect1_dropShadow_4_206"/>
<feBlend mode="normal" in="SourceGraphic" in2="effect1_dropShadow_4_206" result="shape"/>
</filter>
<filter id="filter1_d_4_206" x="12.2635" y="12.4309" width="149.911" height="149.912" filterUnits="userSpaceOnUse" color-interpolation-filters="sRGB">
<feFlood flood-opacity="0" result="BackgroundImageFix"/>
<feColorMatrix in="SourceAlpha" type="matrix" values="0 0 0 0 0 0 0 0 0 0 0 0 0 0 0 0 0 0 127 0" result="hardAlpha"/>
<feOffset dx="10" dy="10"/>
<feGaussianBlur stdDeviation="10"/>
<feComposite in2="hardAlpha" operator="out"/>
<feColorMatrix type="matrix" values="0 0 0 0 0 0 0 0 0 0 0 0 0 0 0 0 0 0 0.3 0"/>
<feBlend mode="normal" in2="BackgroundImageFix" result="effect1_dropShadow_4_206"/>
<feBlend mode="normal" in="SourceGraphic" in2="effect1_dropShadow_4_206" result="shape"/>
</filter>
<linearGradient id="paint0_linear_4_206" x1="59.653" y1="77.3867" x2="107.121" y2="77.3867" gradientUnits="userSpaceOnUse">
<stop stop-color="#202020"/>
<stop offset="1" stop-color="#303030"/>
</linearGradient>
<linearGradient id="paint1_linear_4_206" x1="77.2193" y1="73.8685" x2="56.1984" y2="73.8685" gradientUnits="userSpaceOnUse">
<stop stop-color="white"/>
<stop offset="0.307292" stop-color="white" stop-opacity="0"/>
</linearGradient>
</defs>
</svg>
