<svg width="64" height="64" viewBox="0 0 64 64" fill="none" xmlns="http://www.w3.org/2000/svg">
<g id="Corner BL">
<g id="Ellipse 2" filter="url(#filter0_dd_1_136)">
<circle cx="23.4248" cy="22.8867" r="13.5" fill="#E6D8C4"/>
</g>
<path id="Ellipse 1" d="M36.9248 22.8867C36.9248 30.3426 30.8806 36.3867 23.4248 36.3867C15.969 36.3867 9.9248 30.3426 9.9248 22.8867C9.9248 15.4309 15.969 9.38672 23.4248 9.38672C30.8806 9.38672 36.9248 15.4309 36.9248 22.8867ZM16.6748 22.8867C16.6748 26.6146 19.6969 29.6367 23.4248 29.6367C27.1527 29.6367 30.1748 26.6146 30.1748 22.8867C30.1748 19.1588 27.1527 16.1367 23.4248 16.1367C19.6969 16.1367 16.6748 19.1588 16.6748 22.8867Z" fill="#AA987E"/>
</g>
<defs>
<filter id="filter0_dd_1_136" x="0.924805" y="0.386719" width="63" height="63" filterUnits="userSpaceOnUse" color-interpolation-filters="sRGB">
<feFlood flood-opacity="0" result="BackgroundImageFix"/>
<feColorMatrix in="SourceAlpha" type="matrix" values="0 0 0 0 0 0 0 0 0 0 0 0 0 0 0 0 0 0 127 0" result="hardAlpha"/>
<feOffset dx="9" dy="9"/>
<feGaussianBlur stdDeviation="9"/>
<feComposite in2="hardAlpha" operator="out"/>
<feColorMatrix type="matrix" values="0 0 0 0 0 0 0 0 0 0 0 0 0 0 0 0 0 0 0.5 0"/>
<feBlend mode="normal" in2="BackgroundImageFix" result="effect1_dropShadow_1_136"/>
<feColorMatrix in="SourceAlpha" type="matrix" values="0 0 0 0 0 0 0 0 0 0 0 0 0 0 0 0 0 0 127 0" result="hardAlpha"/>
<feOffset dx="4.5" dy="4.5"/>
<feGaussianBlur stdDeviation="2.25"/>
<feComposite in2="hardAlpha" operator="out"/>
<feColorMatrix type="matrix" values="0 0 0 0 0 0 0 0 0 0 0 0 0 0 0 0 0 0 0.25 0"/>
<feBlend mode="normal" in2="effect1_dropShadow_1_136" result="effect2_dropShadow_1_136"/>
<feBlend mode="normal" in="SourceGraphic" in2="effect2_dropShadow_1_136" result="shape"/>
</filter>
</defs>
</svg>
