<svg width="76" height="77" viewBox="0 0 76 77" fill="none" xmlns="http://www.w3.org/2000/svg">
<g id="smiley">
<circle id="Ellipse 3" cx="38.2193" cy="38.3867" r="23.0833" transform="rotate(5.82985 38.2193 38.3867)" stroke="#E6D8C4" stroke-width="3.83332"/>
<path id="Ellipse 7" d="M53.4944 43.0801C52.7745 45.4231 51.5252 47.5691 49.8433 49.3521C48.1613 51.1351 46.0917 52.5073 43.7946 53.3625C41.4976 54.2177 39.0345 54.533 36.5961 54.284C34.1576 54.035 31.8091 53.2284 29.7323 51.9266C27.6554 50.6249 25.9059 48.8627 24.619 46.7766C23.3321 44.6905 22.5423 42.3363 22.3108 39.8962C22.0792 37.456 22.4121 34.9953 23.2838 32.7044" stroke="#E6D8C4" stroke-width="3.83332"/>
<circle id="Ellipse 5" cx="32.6359" cy="30.2083" r="2.68332" transform="rotate(3.3454 32.6359 30.2083)" fill="#E6D8C4"/>
<circle id="Ellipse 6" cx="47.8739" cy="35.2612" r="2.68332" transform="rotate(3.3454 47.8739 35.2612)" fill="#E6D8C4"/>
</g>
</svg>
